<svg xmlns="http://www.w3.org/2000/svg" xmlns:xlink="http://www.w3.org/1999/xlink" width="146" height="73" viewBox="0 0 146 73">
    <defs>
        <path id="a" d="M.113.038h50.733v41.677H.113z"/>
        <path id="c" d="M0 .25h20.58v20.627H0z"/>
        <path id="e" d="M.294.053h17.912v19.3H.294z"/>
    </defs>
    <g fill="none" fill-rule="evenodd">
        <path fill="#FFAD00" d="M13.674 18.303c-3.48-3.489-3.345-9.252.408-12.564 3.42-3.018 8.632-2.736 11.853.493l5.035 5.046-12.152 12.18-5.144-5.155zM33.27 37.945L21.12 25.765l12.152-12.18 12.152 12.18z"/>
        <path fill="#F92F27" d="M35.572 11.278l5.034-5.046c3.222-3.23 8.434-3.51 11.854-.493 3.753 3.312 3.889 9.075.408 12.564l-5.143 5.155-12.153-12.18z"/>
        <g transform="translate(7.791 .302)">
            <mask id="b" fill="#fff">
                <use xlink:href="#a"/>
            </mask>
            <path fill="#2E3191" d="M27.781 10.976l5.034-5.045c3.222-3.23 8.434-3.511 11.854-.493 3.753 3.311 3.889 9.074.408 12.563l-5.144 5.156-12.152-12.18zM25.48 37.644l-12.153-12.18L25.48 13.282l12.152 12.18-12.152 12.18zM5.883 18C2.402 14.512 2.538 8.75 6.29 5.438 9.71 2.42 14.923 2.7 18.144 5.93l5.035 5.045-12.153 12.18-5.143-5.155zM47.377 3.516c-4.627-4.637-12.127-4.637-16.753 0L25.481 8.67h-.001l-5.144-5.155c-4.627-4.637-12.127-4.637-16.753 0-4.626 4.637-4.626 12.154 0 16.79l5.143 5.156.921.924L24.56 41.333a1.3 1.3 0 0 0 1.84 0l13.533-13.565 1.38-1.382.92-.924 5.144-5.155c4.626-4.637 4.626-12.154 0-16.791z" mask="url(#b)"/>
        </g>
        <path fill="#2E3191" d="M31.226 21.076a2.392 2.392 0 0 0 3.91 0 2.402 2.402 0 0 0 0-2.77 2.392 2.392 0 0 0-3.91 0 2.402 2.402 0 0 0 0 2.77M37.376 27.24a2.392 2.392 0 0 0 3.91 0 2.402 2.402 0 0 0 0-2.77 2.392 2.392 0 0 0-3.91 0 2.402 2.402 0 0 0 0 2.77M29.167 24.288a2.392 2.392 0 0 0-3.91 0 2.402 2.402 0 0 0 0 2.77 2.392 2.392 0 0 0 3.91 0 2.402 2.402 0 0 0 0-2.77M31.408 33.223a2.392 2.392 0 0 0 3.91 0 2.402 2.402 0 0 0 0-2.77 2.392 2.392 0 0 0-3.91 0 2.402 2.402 0 0 0 0 2.77"/>
        <g transform="translate(0 19.995)">
            <mask id="d" fill="#fff">
                <use xlink:href="#c"/>
            </mask>
            <path fill="#FFAD00" d="M16.353 17.035c-.464.41-1.09.602-1.756.542-.611-.062-1.126-.297-1.53-.702l-.173-.174c-.4-.464-.586-1.084-.526-1.751.07-.763 1.239-3.058 2.934-5.797 1.466 3.623 1.922 5.712 1.905 6.213a2.516 2.516 0 0 1-.854 1.669zM5.913 8.48c-.666.06-1.283-.126-1.746-.526l-.174-.174c-.403-.404-.639-.92-.699-1.526-.061-.675.13-1.302.54-1.767a2.506 2.506 0 0 1 1.665-.857h.027c.545 0 2.62.466 6.172 1.91-2.734 1.7-5.023 2.871-5.784 2.94zM16.518 5.77l-3.096-3.103a.795.795 0 0 0-.17-.12 11.574 11.574 0 0 0-1.147-.477 30.164 30.164 0 0 1-.34-.129C7.07.107 5.803.222 5.263.271a5.737 5.737 0 0 0-3.909 2.045A5.7 5.7 0 0 0 .021 6.504a5.745 5.745 0 0 0 2.051 3.965 5.605 5.605 0 0 0 4.174 1.291c.476-.043 1.527-.138 4.883-2.038-1.894 3.364-1.99 4.416-2.032 4.89a5.643 5.643 0 0 0 1.288 4.189 5.721 5.721 0 0 0 3.953 2.055 5.67 5.67 0 0 0 4.18-1.337 5.759 5.759 0 0 0 2.04-3.916c.05-.542.166-1.81-1.663-6.513a29.445 29.445 0 0 1-.13-.345c-.139-.374-.283-.76-.477-1.15a.775.775 0 0 0-.119-.17l-.73-.733-.922-.923z" mask="url(#d)"/>
        </g>
        <path fill="#FFAD00" d="M22.28 54.349c-1.137-.524-2.405-.789-3.77-.789-1.821 0-3.46.418-4.873 1.242a8.948 8.948 0 0 0-3.35 3.445c-.81 1.458-1.22 3.145-1.22 5.014 0 1.826.417 3.486 1.237 4.932a9.236 9.236 0 0 0 3.416 3.46c1.445.846 3.114 1.276 4.959 1.276 2.496 0 4.608-.79 6.286-2.356.387-.388.555-.837.498-1.335-.055-.48-.31-.91-.754-1.277a1.65 1.65 0 0 0-1.251-.397c-.447.039-.88.228-1.291.562-.46.377-.971.657-1.522.834-.558.18-1.22.27-1.966.27-1.121 0-2.115-.261-2.954-.777a5.465 5.465 0 0 1-1.982-2.114c-.476-.89-.717-1.926-.717-3.078 0-1.221.236-2.291.702-3.182a5.183 5.183 0 0 1 1.928-2.076c.818-.494 1.778-.745 2.855-.745 1.554 0 2.817.54 3.867 1.655.358.36.766.59 1.21.68.473.098.91.006 1.303-.274.468-.339.76-.744.868-1.205.115-.49-.022-.964-.408-1.406-.901-1.042-1.934-1.836-3.07-2.36"/>
        <g transform="translate(28.455 53.608)">
            <mask id="f" fill="#fff">
                <use xlink:href="#e"/>
            </mask>
            <path fill="#FFAD00" d="M16.16.053c-.58 0-1.071.19-1.459.565-.39.378-.588.878-.588 1.486v9.503c0 .736-.206 1.41-.614 2.002a4.446 4.446 0 0 1-1.676 1.442c-.7.357-1.515.537-2.422.537-.953 0-1.82-.187-2.578-.556-.742-.361-1.34-.929-1.774-1.687-.439-.765-.662-1.758-.662-2.951v-8.29c0-.583-.196-1.076-.585-1.465-.388-.39-.88-.586-1.461-.586-.582 0-1.074.197-1.462.586-.388.389-.585.882-.585 1.465v8.29c0 1.913.37 3.554 1.1 4.879.735 1.332 1.753 2.357 3.025 3.047 1.264.685 2.714 1.034 4.31 1.034 1.552 0 2.958-.343 4.178-1.02a8.1 8.1 0 0 0 1.233-.836c.066.427.253.797.557 1.1.387.39.88.587 1.462.587.607 0 1.106-.199 1.483-.59.374-.388.564-.88.564-1.461V2.104c0-.605-.191-1.104-.568-1.482-.378-.378-.875-.57-1.479-.57" mask="url(#f)"/>
        </g>
        <path fill="#FFAD00" d="M53.513 46.247c-.693 0-1.298.254-1.798.755a2.474 2.474 0 0 0-.753 1.802c0 .695.254 1.301.753 1.802.5.501 1.105.755 1.798.755.693 0 1.298-.254 1.798-.755.5-.5.753-1.107.753-1.802 0-.695-.254-1.301-.753-1.802a2.46 2.46 0 0 0-1.798-.755M53.513 53.695c-.58 0-1.07.19-1.458.565-.39.378-.588.878-.588 1.486v14.996c0 .585.196 1.077.584 1.465.387.39.879.586 1.462.586.606 0 1.105-.198 1.483-.59.374-.388.563-.88.563-1.46V55.745c0-.605-.19-1.103-.568-1.482-.377-.378-.875-.569-1.478-.569M71.81 68.453c-.838.516-1.81.777-2.886.777-1.054 0-2.02-.261-2.87-.777a5.607 5.607 0 0 1-2.033-2.15c-.497-.911-.75-1.946-.75-3.076 0-1.15.252-2.184.748-3.072a5.677 5.677 0 0 1 2.035-2.12c.85-.515 1.816-.777 2.87-.777 1.076 0 2.047.261 2.886.776a5.603 5.603 0 0 1 2.001 2.118c.486.89.732 1.925.732 3.075 0 1.13-.246 2.166-.733 3.079a5.533 5.533 0 0 1-2 2.147m4.646-22.643c-.58 0-1.07.19-1.458.565-.391.378-.589.878-.589 1.486v8.232a8.733 8.733 0 0 0-2.346-1.674c-1.163-.57-2.445-.859-3.81-.859-1.693 0-3.235.431-4.582 1.281-1.343.848-2.417 2.012-3.192 3.46-.773 1.447-1.166 3.104-1.166 4.926 0 1.827.428 3.493 1.272 4.952a9.455 9.455 0 0 0 3.448 3.474c1.445.846 3.091 1.276 4.891 1.276 1.8 0 3.44-.43 4.876-1.277a9.496 9.496 0 0 0 3.43-3.473c.844-1.46 1.272-3.126 1.272-4.952V47.861c0-.606-.191-1.104-.568-1.483-.377-.377-.875-.568-1.478-.568M94.501 68.453c-.839.516-1.81.777-2.886.777-1.055 0-2.02-.261-2.871-.777a5.64 5.64 0 0 1-2.033-2.135c-.497-.9-.749-1.928-.749-3.057 0-1.15.252-2.19.749-3.09a5.646 5.646 0 0 1 2.033-2.135c.851-.516 1.817-.778 2.87-.778 1.076 0 2.047.261 2.887.776a5.577 5.577 0 0 1 2 2.133c.486.902.733 1.943.733 3.094 0 1.13-.247 2.158-.733 3.06a5.564 5.564 0 0 1-2 2.132m5.42-10.144a9.503 9.503 0 0 0-3.43-3.473c-1.436-.847-3.077-1.276-4.876-1.276-1.8 0-3.446.43-4.892 1.276a9.46 9.46 0 0 0-3.448 3.473c-.843 1.46-1.272 3.126-1.272 4.952 0 1.823.393 3.48 1.166 4.926.775 1.449 1.85 2.613 3.192 3.46 1.347.85 2.888 1.282 4.581 1.282 1.693 0 3.234-.432 4.581-1.282a8.942 8.942 0 0 0 1.577-1.261v.39c0 .584.196 1.077.584 1.465.387.39.88.586 1.462.586s1.074-.197 1.461-.586c.389-.388.585-.881.585-1.465v-7.733l-.002-.001c-.033-1.74-.46-3.332-1.27-4.733M119.21 54.56c-1.265-.685-2.716-1.034-4.31-1.034-1.528 0-2.928.343-4.16 1.019-.45.246-.866.526-1.248.838a1.925 1.925 0 0 0-.544-1.119c-.377-.377-.874-.57-1.478-.57-.58 0-1.07.191-1.458.566-.39.378-.588.879-.588 1.486v15.03c0 .584.197 1.077.584 1.465.388.39.88.586 1.462.586.606 0 1.105-.198 1.483-.59.374-.388.563-.88.563-1.46v-9.504c0-.759.206-1.437.613-2.017.414-.59.983-1.07 1.692-1.426.712-.357 1.522-.538 2.407-.538.974 0 1.847.187 2.593.556.733.362 1.325.924 1.76 1.671.439.754.66 1.752.66 2.967v8.29c0 .585.198 1.077.586 1.465.387.39.879.586 1.462.586.581 0 1.073-.197 1.461-.586.388-.388.585-.881.585-1.465v-8.29c0-1.913-.37-3.554-1.1-4.879-.734-1.33-1.752-2.356-3.025-3.046M139.287 68.453c-.84.516-1.81.777-2.886.777-1.055 0-2.02-.261-2.871-.777a5.637 5.637 0 0 1-2.033-2.135c-.497-.9-.749-1.928-.749-3.057 0-1.15.252-2.19.749-3.09a5.646 5.646 0 0 1 2.033-2.135c.851-.516 1.817-.778 2.87-.778 1.076 0 2.047.261 2.887.776a5.573 5.573 0 0 1 2 2.133c.486.902.733 1.943.733 3.094 0 1.13-.247 2.158-.734 3.06a5.564 5.564 0 0 1-2 2.132zm6.69-5.411c-.034-1.74-.46-3.332-1.27-4.733a9.507 9.507 0 0 0-3.431-3.473c-1.435-.847-3.076-1.276-4.875-1.276-1.8 0-3.446.43-4.891 1.276a9.458 9.458 0 0 0-3.449 3.473c-.844 1.46-1.272 3.126-1.272 4.952 0 1.823.393 3.48 1.166 4.926.775 1.449 1.85 2.613 3.192 3.46 1.347.85 2.889 1.282 4.581 1.282 1.692 0 3.234-.432 4.581-1.282a8.94 8.94 0 0 0 1.576-1.261v.39c0 .584.197 1.077.585 1.465.388.39.88.586 1.462.586s1.074-.197 1.461-.586c.389-.388.585-.881.585-1.465v-7.733l-.002-.001z"/>
    </g>
</svg>
